<?xml version="1.0" encoding="UTF-8"?>
<svg xmlns="http://www.w3.org/2000/svg" xmlns:xlink="http://www.w3.org/1999/xlink" width="1024" height="1024" viewBox="0 0 1024 1024" style="background: transparent;"><path fill="white" d="M500.067 50.2438C606.236 48.0438 710.013 81.9057 794.453 146.299C810.034 158.153 824.941 172.18 839.375 185.418C849.492 169.874 860.403 150.453 870.356 134.288C859.711 126.649 848.064 120.168 837.283 112.474C841.96 109.33 850.606 105.046 855.722 102.463L881.909 89.2299C897.453 81.326 915.457 71.0286 930.822 63.9505C933.618 101.97 935.77 140.035 937.277 178.128C924.136 170.226 910.645 161.34 897.833 152.889C888.392 171.656 874.3 193.728 863.173 212.027C887.567 241.185 907.471 270.144 924.421 304.383C978.574 415.113 986.926 542.718 947.667 659.562C908.697 774.91 829.862 870.145 720.23 924.502C636.457 966.034 542.157 981.499 449.506 968.9C357.553 956.875 271.395 917.289 202.373 855.352C189.219 843.343 176.1 830.49 165.185 816.373C153.962 816.875 146.682 816.942 136.149 811.806C123.634 805.707 114.064 794.875 109.555 781.704C105.008 768.345 106.051 754.895 112.189 742.295C104.834 728.251 98.3344 717.304 91.5045 702.452C65.8363 646.502 51.5809 585.995 49.5721 524.471C46.591 402.38 91.7999 284.025 175.417 195.013C259.725 105.01 376.772 52.8162 500.067 50.2438Z"/><path fill="#1A1C24" d="M824.558 275.359C825.178 275.951 825.778 276.563 826.36 277.193C832.895 284.283 843.304 302.002 848.353 310.525C886.457 374.922 905.199 448.934 902.338 523.705C898.561 628.256 856.313 729.726 779.133 801.276C702.772 871.214 601.798 908.026 498.342 903.645C383.268 899.194 287.687 850.515 210.162 766.757C209.125 753.889 208.584 751.294 203.352 739.507C211.398 730.504 221.23 717.014 229.107 707.216C245.755 687.272 260.975 666.467 277.187 646.235C297.438 621.136 317.487 595.875 337.332 570.453C346.059 559.273 355.462 547.574 363.85 536.2C392.993 552.303 421.239 570.039 450.353 586.341C466.215 595.222 479.564 603.48 496.321 611.249C496.652 604.675 496.497 596.709 496.538 590.031C482.277 580.91 467.149 573.131 452.477 564.661L377.517 520.464C389.507 504.575 401.617 489.763 413.77 474.137C440.659 482.616 457.464 476.988 477.95 458.73C518.263 483.122 558.815 507.117 599.601 530.711C614.5 539.322 641.688 556.676 656.608 562.201C660.14 561.137 663.218 559.986 665.366 556.84C668.497 552.256 671.37 547.224 674.152 542.425L688.841 516.729C704.349 489.569 719.628 462.279 734.675 434.862C764.033 381.547 795.789 328.677 824.558 275.359Z"/><path fill="white" d="M800.842 533.422C805.761 535.611 813.527 564.676 814.605 569.819C815.961 576.312 816.887 582.888 817.376 589.503C820.082 633.438 805.195 676.644 776.001 709.587C741.189 749.546 683.896 770.357 631.606 761.291C600.074 755.825 575.196 742.672 551.365 721.897C536.314 707.931 529.1 698.155 518.643 681.02C539.612 669.43 561.115 658.644 582.035 646.952C590.722 642.098 599.184 637.33 608.292 633.279C611.72 637.955 615.862 642.062 620.568 645.449C634.306 655.313 651.425 659.258 668.095 656.402C685.521 653.306 700.983 643.367 711.036 628.801C722.079 612.796 724.096 597.37 720.698 578.691C730.026 572.756 741.655 567.023 751.517 561.59C768.126 552.497 784.57 543.106 800.842 533.422Z"/><path fill="white" d="M498.164 590.375L498.312 589.686C499.43 584.257 499.731 575.855 501.037 569.592C506.875 541.602 516.76 524.342 533.29 502.208L584.431 532.384C593.383 537.626 602.985 542.778 611.755 548.184C592.762 571.037 588.197 592.556 599.313 620.678C584.289 628.281 570.562 636.269 555.881 644.305C541.11 652.391 526.609 659.737 512.014 668.334C500.097 641.628 497.738 623.021 497.94 594.358L498.164 590.375Z"/><path fill="white" d="M730.132 461.701C754.486 471.469 781.887 497.203 794.173 520.35C776.584 529.116 755.464 541.792 737.745 551.474C730.218 555.802 721.433 560.173 713.652 564.392C704.028 550.436 699.877 547.664 685.172 540.014C700.617 514.175 715.606 488.067 730.132 461.701Z"/><path fill="white" d="M677.815 551.403C701.111 561.3 712.224 585.29 703.944 609.538C690.443 649.08 631.594 652.156 614.066 613.879C607.692 599.961 608.845 586.467 614 572.388C617.294 564.824 619.83 561.882 625.761 556.1C631.633 559.218 637.422 562.491 643.121 565.914C631.141 575.083 623.905 585.225 628.198 601.191C630.309 609.197 635.574 616.006 642.792 620.063C649.874 624.011 658.364 624.634 666.101 622.433C673.972 620.272 680.626 615.003 684.534 607.836C688.375 600.603 689.174 592.136 686.754 584.312C683.678 574.629 677.131 570.002 668.751 565.531C673.019 560.929 674.856 556.845 677.815 551.403Z"/><path fill="white" d="M655.361 570.758C663.351 569.67 671.308 572.969 676.184 579.391C681.059 585.814 682.098 594.364 678.903 601.768C675.707 609.171 668.773 614.28 660.755 615.137C648.603 616.437 637.66 607.737 636.186 595.606C634.712 583.474 643.252 572.407 655.361 570.758Z"/><path fill="#1A1C24" d="M522.034 120.348C524.74 120.368 527.445 120.439 530.148 120.562C617.041 124.579 693.653 152.913 760.821 209.129C775.72 221.599 787.965 234.284 801.033 248.605C792.289 264.34 783.028 279.659 774.056 295.258L714.161 399.825L678.669 462.831C669.819 478.714 660.902 494.661 651.65 510.315C650.51 512.243 648.866 514.81 646.681 515.476C645.257 515.91 640.504 513.538 639.111 512.748C618.672 501.161 598.545 488.839 578.203 477.078C549.939 460.739 521.178 445.286 493.193 428.507C496.141 388.761 467.946 356.127 426.933 361.877C411.627 363.96 397.786 372.068 388.484 384.4C378.241 398.086 375.247 413.353 377.643 430.055C379.038 438.773 382.048 445.13 386.47 452.609C383.101 456.334 378.283 463.191 374.962 467.478L351.943 496.957L346.316 493.483C349.561 483.591 351.519 474.558 349.929 464.132C347.871 450.401 340.406 438.063 329.198 429.867C317.874 421.564 303.672 418.195 289.824 420.527C265.777 424.627 248.489 443.124 246.715 467.514C246.137 475.463 247.406 482.456 248.793 490.207C237.857 498.869 217.786 510.909 205.516 518.722C206.559 425.923 234.598 353.297 300.799 287.421L342.224 329.531C346.466 325.394 350.733 321.282 355.023 317.194C347.554 307.292 324.268 284.492 314.302 275.365C323.366 266.539 340.735 255.064 351.543 248.718C391.777 225.398 436.695 211.321 483.041 207.507C495.713 206.521 509.218 206.759 521.979 206.749C522.176 177.949 522.195 149.148 522.034 120.348Z"/><path fill="white" d="M651.986 450.789C659.233 450.186 668.069 450.479 675.349 450.82L644.38 506.178L621.211 492.263C608.604 484.825 596.099 477.215 583.7 469.434C607.167 456.894 626.169 453.107 651.986 450.789Z"/><path fill="#1A1C24" d="M853.098 229.428C854.742 231.073 858.632 236.082 860.208 238.034C868.466 248.313 876.199 259.003 883.377 270.063C929.501 341.563 952.81 426.098 953.425 510.656C954.288 629.145 906.663 743.147 823.547 827.133C742.692 908.835 631.809 953.213 517.697 954.518C416.247 956.03 317.349 922.693 237.517 860.073C223.095 848.658 209.338 836.427 196.314 823.439C192.17 818.93 188.077 814.374 184.037 809.772C195.096 803.765 198.686 799.053 204.486 788.068C223.166 807.709 239.367 822.828 261.201 839.267C325.712 887.459 402.731 916.066 483.061 921.671C591.893 929.931 699.532 894.49 782.166 823.186C863.646 750.942 913.381 649.505 920.596 540.849C926.682 457.431 907.288 374.133 864.981 301.983C857.622 289.476 845.216 269.939 835.82 259.181C840.812 249.386 847.381 238.91 853.098 229.428Z"/><path fill="#1A1C24" d="M205.874 190.869C214.057 197.522 226.64 210.912 234.587 218.932C252.683 237.258 270.64 255.72 288.458 274.316C237.389 322.658 203.533 386.377 192.054 455.754C189.398 472.232 188.589 486.464 187.964 502.979L151.25 502.973L68.253 502.99L68.7247 491.091C73.2779 395.684 108.531 304.301 169.233 230.555C181.443 215.69 191.804 203.747 205.874 190.869Z"/><path fill="#1A1C24" d="M490.076 69.2832C493.908 68.9677 498.519 68.9156 502.415 68.7714C503.12 107.916 502.478 149.175 502.493 188.489C436.105 188.017 351.241 216.588 301.887 261.624C290.724 249.997 279.488 238.44 268.182 226.953C252.012 210.838 236.866 193.806 220.51 177.92L220.797 177.602C230.407 167.085 251.567 151.964 263.458 143.994C330.556 98.4518 409.049 72.5744 490.076 69.2832Z"/><path fill="#1A1C24" d="M329.648 514.432C331.428 514.763 333.033 516.337 334.447 517.513C321.804 532.868 309.606 549.32 297.377 565.081L238.585 640.225L199.879 689.496C193.08 698.108 184.527 707.896 178.661 716.868C171.888 706.876 165.763 696.461 160.322 685.687C148.224 661.083 139.204 638.455 132.075 611.815C143.635 603.278 157.596 594.433 169.634 586.343L236.801 541.347C247.687 534.098 261.174 525.659 271.493 517.993C292.962 529.045 309.579 526.919 329.648 514.432Z"/><path fill="#1A1C24" d="M521.967 68.4805C613.292 73.3705 687.135 94.8358 763.409 147.23C787.943 164.083 808.467 180.77 828.724 202.568C825.3 208.668 822.264 213.935 818.429 219.759C816.043 223.739 813.531 227.283 810.882 231.079C809.21 229.271 807.529 227.473 805.838 225.682C749.911 166.662 677.178 126.281 597.512 110.019C570.495 104.585 549.075 102.781 521.933 101.989L521.967 68.4805Z"/><path fill="#1A1C24" d="M89.6899 522.762L100.431 522.596C100.416 562.583 109.697 604.643 122.305 642.448C130.701 667.626 142.44 691.368 154.561 714.903C142.995 715.999 139.16 717.159 129.035 723.035L124.766 726.113C117.075 713.305 109.455 696.705 103.461 683.008C80.6727 630.926 70.8342 579.484 68.015 522.923L89.6899 522.762Z"/><path fill="#1A1C24" d="M429.766 379.755C451.814 376.77 472.062 392.342 474.839 414.416C477.616 436.491 461.854 456.592 439.754 459.161C417.947 461.695 398.17 446.187 395.43 424.405C392.69 402.623 408.011 382.7 429.766 379.755Z"/><path fill="#1A1C24" d="M295.048 438.177C313.67 436.362 330.275 449.897 332.251 468.502C334.228 487.108 320.839 503.83 302.251 505.968C283.433 508.133 266.459 494.541 264.458 475.706C262.457 456.87 276.195 440.015 295.048 438.177Z"/><path fill="#1A1C24" d="M155.538 733.192C173.379 731.54 189.194 744.631 190.905 762.466C192.615 780.301 179.577 796.16 161.748 797.929C143.835 799.708 127.886 786.595 126.167 768.676C124.448 750.757 137.614 734.851 155.538 733.192Z"/><path fill="#1A1C24" d="M197.656 522.738L198.356 522.721L198.211 523.33C182.427 534.897 164.915 545.925 148.634 556.873C144.426 559.702 128.407 571.592 124.92 573.364L124.155 573.01L123.676 571.139C122.316 554.375 119.879 540.957 118.912 523.046C131.797 522.858 144.682 522.796 157.568 522.858C170.84 522.995 184.422 523.478 197.656 522.738Z"/></svg>
